<svg width="22" height="22" viewBox="0 0 22 22" fill="none" xmlns="http://www.w3.org/2000/svg">
<circle cx="11" cy="11" r="10.5" fill="#7A44FF" stroke="#FAFAFA"/>
<mask id="mask0_1_425" style="mask-type:alpha" maskUnits="userSpaceOnUse" x="5" y="3" width="14" height="14">
<rect x="5.00024" y="3.99988" width="13" height="13" fill="#D9D9D9"/>
</mask>
<g mask="url(#mask0_1_425)">
<path d="M5.54175 14.8334V13.3167C5.54175 13.0098 5.62074 12.7277 5.77873 12.4704C5.93671 12.2131 6.14661 12.0167 6.40841 11.8813C6.96814 11.6015 7.53689 11.3916 8.11466 11.2516C8.69244 11.1117 9.27925 11.0417 9.87508 11.0417C10.4709 11.0417 11.0577 11.1117 11.6355 11.2516C12.2133 11.3916 12.782 11.6015 13.3417 11.8813C13.6036 12.0167 13.8134 12.2131 13.9714 12.4704C14.1294 12.7277 14.2084 13.0098 14.2084 13.3167V14.8334H5.54175ZM15.2917 14.8334V13.2084C15.2917 12.8112 15.1812 12.4298 14.96 12.0641C14.7388 11.6985 14.4251 11.3848 14.0188 11.123C14.4792 11.1772 14.9126 11.2697 15.3188 11.4006C15.7251 11.5315 16.1042 11.6917 16.4563 11.8813C16.7813 12.0619 17.0296 12.2628 17.2011 12.4839C17.3727 12.7051 17.4584 12.9466 17.4584 13.2084V14.8334H15.2917ZM9.87508 10.5001C9.27925 10.5001 8.76918 10.2879 8.34487 9.86362C7.92057 9.43932 7.70841 8.92925 7.70841 8.33341C7.70841 7.73758 7.92057 7.22751 8.34487 6.80321C8.76918 6.3789 9.27925 6.16675 9.87508 6.16675C10.4709 6.16675 10.981 6.3789 11.4053 6.80321C11.8296 7.22751 12.0417 7.73758 12.0417 8.33341C12.0417 8.92925 11.8296 9.43932 11.4053 9.86362C10.981 10.2879 10.4709 10.5001 9.87508 10.5001ZM15.2917 8.33341C15.2917 8.92925 15.0796 9.43932 14.6553 9.86362C14.231 10.2879 13.7209 10.5001 13.1251 10.5001C13.0258 10.5001 12.8994 10.4888 12.7459 10.4662C12.5924 10.4437 12.4661 10.4188 12.3667 10.3917C12.6105 10.1029 12.7978 9.78237 12.9287 9.43029C13.0596 9.07821 13.1251 8.71258 13.1251 8.33341C13.1251 7.95425 13.0596 7.58862 12.9287 7.23654C12.7978 6.88446 12.6105 6.56397 12.3667 6.27508C12.4931 6.22994 12.6195 6.2006 12.7459 6.18706C12.8723 6.17352 12.9987 6.16675 13.1251 6.16675C13.7209 6.16675 14.231 6.3789 14.6553 6.80321C15.0796 7.22751 15.2917 7.73758 15.2917 8.33341ZM6.62508 13.7501H13.1251V13.3167C13.1251 13.2174 13.1003 13.1272 13.0506 13.0459C13.0009 12.9647 12.9355 12.9015 12.8542 12.8563C12.3667 12.6126 11.8747 12.4298 11.3782 12.3079C10.8817 12.186 10.3806 12.1251 9.87508 12.1251C9.36953 12.1251 8.86848 12.186 8.37196 12.3079C7.87543 12.4298 7.38341 12.6126 6.89591 12.8563C6.81466 12.9015 6.74921 12.9647 6.69956 13.0459C6.64991 13.1272 6.62508 13.2174 6.62508 13.3167V13.7501ZM9.87508 9.41675C10.173 9.41675 10.428 9.31067 10.6402 9.09852C10.8523 8.88637 10.9584 8.63133 10.9584 8.33341C10.9584 8.0355 10.8523 7.78046 10.6402 7.56831C10.428 7.35616 10.173 7.25008 9.87508 7.25008C9.57716 7.25008 9.32213 7.35616 9.10998 7.56831C8.89782 7.78046 8.79175 8.0355 8.79175 8.33341C8.79175 8.63133 8.89782 8.88637 9.10998 9.09852C9.32213 9.31067 9.57716 9.41675 9.87508 9.41675Z" fill="white"/>
</g>
</svg>
