<svg width="45" height="45" viewBox="0 0 45 45" fill="none" xmlns="http://www.w3.org/2000/svg">
<circle cx="22.5" cy="22.5" r="22.5" fill="#ECF5FF"/>
<g clip-path="url(#clip0_1_747)">
<path d="M17.2385 17.1497H17.2479M17.2385 28.3104H17.2479M15.3784 13.4294H30.2594C31.2867 13.4294 32.1195 14.2622 32.1195 15.2896V19.0098C32.1195 20.0371 31.2867 20.8699 30.2594 20.8699H15.3784C14.3511 20.8699 13.5183 20.0371 13.5183 19.0098V15.2896C13.5183 14.2622 14.3511 13.4294 15.3784 13.4294ZM15.3784 24.5902H30.2594C31.2867 24.5902 32.1195 25.423 32.1195 26.4503V30.1705C32.1195 31.1978 31.2867 32.0306 30.2594 32.0306H15.3784C14.3511 32.0306 13.5183 31.1978 13.5183 30.1705V26.4503C13.5183 25.423 14.3511 24.5902 15.3784 24.5902Z" stroke="#3994FF" stroke-width="2.1875" stroke-linecap="round" stroke-linejoin="round"/>
</g>
<defs>
<clipPath id="clip0_1_747">
<rect width="22.3214" height="22.3214" fill="white" transform="translate(11.6582 11.5693)"/>
</clipPath>
</defs>
</svg>
